<svg xmlns="http://www.w3.org/2000/svg" id="Layer_2" data-name="Layer 2" viewBox="0 0 89.68 126.8"><defs><style>.cls-1{fill:#fff}.cls-3{fill:#005e85}</style></defs><g id="Layer_4" data-name="Layer 4"><g><g><path d="M8.12 125.78c-3.92 0-7.1-3.19-7.1-7.1v-16.89h74.84v16.89c0 3.92-3.19 7.1-7.1 7.1H8.12Z" class="cls-3"/><path d="M74.84 102.81v15.87c0 3.36-2.73 6.09-6.09 6.09H8.12c-3.36 0-6.09-2.73-6.09-6.09v-15.87h72.81m2.03-2.03H0v17.9a8.12 8.12 0 0 0 8.12 8.12h60.64a8.12 8.12 0 0 0 8.12-8.12v-17.9Z" class="cls-3"/></g><g><path d="M1.01 101.44V8.25c0-3.99 3.19-7.24 7.1-7.24h60.64c3.92 0 7.1 3.25 7.1 7.24v93.19H1.01Z" class="cls-1"/><path d="M68.75 2.03c3.36 0 6.09 2.79 6.09 6.22v92.18H2.03V8.25c0-3.43 2.73-6.22 6.09-6.22h60.64M68.75 0H8.12C3.63 0 0 3.69 0 8.25v94.21h76.87V8.25c0-4.56-3.63-8.25-8.12-8.25Z" class="cls-3"/></g><g><g><path d="M54.5 63.2H22.22l-1.19 3.88h8.61l1.64 5.35h14.16l1.64-5.35h8.61L54.5 63.2z" class="cls-3"/><g><path d="M27.49 41.42c-1.19 1.67-1.67 3.68-1.36 5.69s1.42 3.79 3.06 5.01l7.73 5.64c.42.31.68.74.76 1.25.08.51-.03 1.02-.34 1.42l1.16.85 4.08-5.66a7.608 7.608 0 0 0 1.44-4.47c0-.4-.03-.82-.08-1.22-.31-2.01-1.42-3.79-3.06-5.01l-7.73-5.64c-.42-.31-.68-.74-.76-1.25-.03-.11-.03-.2-.03-.31 0-.4.11-.79.37-1.13l-1.16-.85-4.08 5.69ZM32.13 18.74a11.102 11.102 0 0 0-2.12 6.51c0 .59.06 1.19.14 1.78.45 2.95 2.04 5.52 4.45 7.25l9.71 7.05c1.27.93 2.12 2.32 2.38 3.88.06.31.08.62.08.93 0 1.25-.4 2.46-1.13 3.48l.93.68 7.65-10.62c1.73-2.41 2.44-5.35 1.98-8.27-.45-2.95-2.04-5.49-4.45-7.25l-11.72-8.55a3.38 3.38 0 0 1-1.36-2.24c-.14-.91.08-1.81.59-2.55l-.93-.68-6.2 8.58Z" class="cls-3"/></g><g><path d="M12.31 75.66h8.84c2.18 0 3.88.59 4.98 1.7.88.88 1.3 1.95 1.3 3.26v.06c0 2.15-1.13 3.37-2.49 4.13 2.21.85 3.57 2.12 3.57 4.7v.06c0 3.51-2.83 5.24-7.14 5.24h-9.06V75.67Zm7.93 7.73c1.84 0 3.03-.59 3.03-2.01v-.06c0-1.25-.99-1.95-2.75-1.95h-4.13v4.05h3.85v-.03Zm1.13 7.7c1.84 0 2.97-.65 2.97-2.07v-.06c0-1.27-.96-2.07-3.12-2.07h-4.84v4.22h4.98v-.03ZM30.32 75.66h8.84c2.18 0 3.91.59 4.98 1.7.88.88 1.3 1.95 1.3 3.26v.06c0 2.15-1.13 3.37-2.49 4.13 2.21.85 3.57 2.12 3.57 4.7v.06c0 3.51-2.83 5.24-7.14 5.24h-9.06V75.67Zm7.96 7.73c1.84 0 3.03-.59 3.03-2.01v-.06c0-1.25-.99-1.95-2.75-1.95h-4.13v4.05h3.85v-.03Zm1.1 7.7c1.84 0 2.97-.65 2.97-2.07v-.06c0-1.27-.96-2.07-3.12-2.07h-4.84v4.22h4.98v-.03ZM48.36 75.66h8.84c2.18 0 3.88.59 4.98 1.7.88.88 1.3 1.95 1.3 3.26v.06c0 2.15-1.13 3.37-2.49 4.13 2.21.85 3.57 2.12 3.57 4.7v.06c0 3.51-2.83 5.24-7.14 5.24h-9.06V75.67Zm7.93 7.73c1.84 0 3.03-.59 3.03-2.01v-.06c0-1.25-.99-1.95-2.75-1.95h-4.13v4.05h3.85v-.03Zm1.13 7.7c1.84 0 2.97-.65 2.97-2.07v-.06c0-1.27-.96-2.07-3.12-2.07h-4.84v4.22h4.98v-.03Z" class="cls-3"/></g></g><g><path d="M9.63 105.91H11l2.89 6.79h-1.55l-.62-1.51H8.87l-.62 1.51H6.74l2.89-6.79Zm1.56 3.96-.9-2.19-.9 2.19h1.79ZM14 109.34v-.02c0-1.92 1.44-3.49 3.51-3.49 1.27 0 2.03.42 2.66 1.04l-.94 1.09c-.52-.47-1.05-.76-1.72-.76-1.14 0-1.95.94-1.95 2.1v.02c0 1.16.8 2.12 1.95 2.12.77 0 1.24-.31 1.77-.79l.94.95c-.69.74-1.46 1.2-2.76 1.2-1.98 0-3.46-1.53-3.46-3.47ZM20.72 109.34v-.02c0-1.92 1.44-3.49 3.51-3.49 1.27 0 2.03.42 2.66 1.04l-.94 1.09c-.52-.47-1.05-.76-1.72-.76-1.14 0-1.95.94-1.95 2.1v.02c0 1.16.8 2.12 1.95 2.12.77 0 1.24-.31 1.77-.79l.94.95c-.69.74-1.46 1.2-2.76 1.2-1.98 0-3.46-1.53-3.46-3.47ZM27.93 105.96h3.08c.86 0 1.52.24 1.96.68.38.38.58.91.58 1.54v.02c0 1.09-.59 1.77-1.44 2.09l1.65 2.41h-1.73l-1.44-2.16h-1.16v2.16h-1.48v-6.74Zm2.99 3.27c.72 0 1.14-.39 1.14-.95v-.02c0-.64-.44-.96-1.16-.96h-1.47v1.94h1.5ZM34.7 105.96h5.08v1.32h-3.61v1.37h3.18v1.32h-3.18v1.42h3.66v1.32H34.7v-6.74ZM40.96 105.96h2.63c2.12 0 3.58 1.45 3.58 3.35v.02c0 1.9-1.46 3.37-3.58 3.37h-2.63v-6.74Zm1.48 1.33v4.06h1.15c1.21 0 2.03-.82 2.03-2.01v-.02c0-1.19-.82-2.03-2.03-2.03h-1.15ZM48.36 105.96h1.48v6.74h-1.48v-6.74ZM52.91 107.32h-2.05v-1.37h5.58v1.37h-2.05v5.37h-1.48v-5.37ZM57.38 105.96h5.08v1.32h-3.61v1.37h3.18v1.32h-3.18v1.42h3.66v1.32h-5.13v-6.74ZM63.64 105.96h2.63c2.12 0 3.58 1.45 3.58 3.35v.02c0 1.9-1.46 3.37-3.58 3.37h-2.63v-6.74Zm1.48 1.33v4.06h1.15c1.21 0 2.03-.82 2.03-2.01v-.02c0-1.19-.82-2.03-2.03-2.03h-1.15ZM14.96 115.02h3.13c.77 0 1.38.21 1.76.6.31.31.46.68.46 1.15v.02c0 .76-.4 1.18-.89 1.45.78.3 1.26.75 1.26 1.66v.02c0 1.23-1 1.85-2.52 1.85h-3.21v-6.74Zm3.88 1.99c0-.44-.35-.69-.97-.69h-1.46v1.42h1.37c.65 0 1.07-.21 1.07-.71v-.02Zm-.72 1.96h-1.71v1.48h1.76c.65 0 1.05-.23 1.05-.73v-.02c0-.45-.34-.73-1.1-.73ZM21.61 118.87v-3.85h1.48v3.81c0 1.1.55 1.67 1.45 1.67s1.45-.55 1.45-1.62v-3.86h1.48v3.8c0 2.04-1.15 3.04-2.96 3.04s-2.92-1.01-2.92-2.99ZM28.34 120.77l.88-1.05c.61.5 1.24.82 2.01.82.61 0 .97-.24.97-.64v-.02c0-.38-.23-.57-1.36-.86-1.36-.35-2.23-.72-2.23-2.06v-.02c0-1.22.98-2.03 2.36-2.03.98 0 1.82.31 2.5.86l-.77 1.12c-.6-.41-1.18-.66-1.75-.66s-.87.26-.87.59v.02c0 .44.29.59 1.45.89 1.37.36 2.14.85 2.14 2.02v.02c0 1.34-1.02 2.09-2.47 2.09-1.02 0-2.05-.36-2.86-1.08ZM34.84 115.02h1.48v6.74h-1.48v-6.74ZM37.82 115.02h1.37l3.16 4.15v-4.15h1.46v6.74h-1.26l-3.26-4.28v4.28h-1.46v-6.74ZM45.23 115.02h5.08v1.32H46.7v1.37h3.18v1.32H46.7v1.42h3.66v1.32h-5.13v-6.74ZM51.03 120.77l.88-1.05c.61.5 1.24.82 2.01.82.61 0 .97-.24.97-.64v-.02c0-.38-.23-.57-1.36-.86-1.36-.35-2.23-.72-2.23-2.06v-.02c0-1.22.98-2.03 2.36-2.03.98 0 1.82.31 2.5.86l-.77 1.12c-.6-.41-1.18-.66-1.75-.66s-.87.26-.87.59v.02c0 .44.29.59 1.45.89 1.37.36 2.14.85 2.14 2.02v.02c0 1.34-1.02 2.09-2.47 2.09-1.02 0-2.05-.36-2.86-1.08ZM56.9 120.77l.88-1.05c.61.5 1.24.82 2.01.82.61 0 .97-.24.97-.64v-.02c0-.38-.23-.57-1.36-.86-1.36-.35-2.23-.72-2.23-2.06v-.02c0-1.22.98-2.03 2.36-2.03.98 0 1.82.31 2.5.86l-.77 1.12c-.6-.41-1.18-.66-1.75-.66s-.87.26-.87.59v.02c0 .44.29.59 1.45.89 1.37.36 2.14.85 2.14 2.02v.02c0 1.34-1.02 2.09-2.47 2.09-1.02 0-2.05-.36-2.86-1.08Z" class="cls-1"/></g></g><path fill="#016087" d="M78.64 120.31v-.03a5.518 5.518 0 0 1 5.5-5.54c3.05 0 5.53 2.46 5.54 5.51v.03a5.518 5.518 0 0 1-5.5 5.54c-3.05 0-5.53-2.46-5.54-5.51Zm10.54-.03v-.03a5.02 5.02 0 0 0-7.54-4.33c-1.55.9-2.5 2.57-2.49 4.36v.03c0 1.79.97 3.45 2.52 4.35 1.55.89 3.47.89 5.02-.02 1.55-.9 2.5-2.57 2.49-4.36ZM82 117.29h2.54c.62-.03 1.22.19 1.68.6.3.29.46.68.46 1.1v.03c0 .92-.61 1.47-1.46 1.67l1.75 2.28h-1.05l-1.63-2.14h-1.45v2.14H82v-5.67Zm2.45 2.78c.79 0 1.34-.37 1.34-1.02v-.03c0-.6-.49-.98-1.3-.98h-1.66v2.02h1.62Z"/></g></g></svg>